# xmcd
#
# Track frame offsets:
#	150
#	9450
#	17375
#	25349
#	35572
#	43758
#	52124
#	61654
#	69961
#	83170
#	91914
#	101520
#
# Disc length: 1499 seconds
#
# Revision: 1
# Processed by: cddbd v1.5.2PL0 Copyright (c) Steve Scherf et al.
# Submitted via: audiograbber 1.83.01
#
DISCID=8a05d90c
DTITLE=Fats Domino - Just Domino
DYEAR=1962
DGENRE=Blues/Rock&Roll
TTITLE0=Teen Age Love
TTITLE1=Stop The Clock
TTITLE2=Hum Diddy Doo
TTITLE3=Those Eyes
TTITLE4=I Want To Go Home
TTITLE5=Dance With Mr. Domino
TTITLE6=Nothing New (Same Old Thing)
TTITLE7=Birds and Bees
TTITLE8=Wishing Ring
TTITLE9=La La
TTITLE10=No No
TTITLE11=Goin' Home
EXTD=
EXTT0=
EXTT1=
EXTT2=
EXTT3=
EXTT4=
EXTT5=
EXTT6=
EXTT7=
EXTT8=
EXTT9=
EXTT10=
EXTT11=
PLAYORDER=
